Land_normalized_pl06_filtered_grf
version=1
nRows=22
nColumns=37
inDegrees=yes
endheader
time		1_ground_force_vx		1_ground_force_vy		1_ground_force_vz		1_ground_force_px		1_ground_force_py		1_ground_force_pz		1_ground_torque_x		1_ground_torque_y		1_ground_torque_z		2_ground_force_vx		2_ground_force_vy		2_ground_force_vz		2_ground_force_px		2_ground_force_py		2_ground_force_pz		2_ground_torque_x		2_ground_torque_y		2_ground_torque_z		3_ground_force_vx		3_ground_force_vy		3_ground_force_vz		3_ground_force_px		3_ground_force_py		3_ground_force_pz		3_ground_torque_x		3_ground_torque_y		3_ground_torque_z		4_ground_force_vx		4_ground_force_vy		4_ground_force_vz		4_ground_force_px		4_ground_force_py		4_ground_force_pz		4_ground_torque_x		4_ground_torque_y		4_ground_torque_z		
0.969500		2.746701		-21.663422		-16.915077		0.164806		0.000000		0.161329		0.016829		-0.132733		-0.103640		-6.399485		-36.137869		-23.981978		-0.249174		0.000000		0.172541		-0.401489		-2.267204		-1.504572		-0.095255		-0.623290		-1.169886		0.413338		1.262876		1.873800		0.036310		-0.003248		0.032001		-2.047378		-1.636202		-2.163457		-0.353344		1.256003		1.901051		0.033196		-0.033716		0.036607		
0.972227		4.941024		-32.372920		-25.177451		0.167280		0.000000		0.151540		0.019231		-0.126073		-0.098051		-8.712772		-42.258033		-30.734886		-0.258236		0.000000		0.163837		-0.579173		-2.808885		-2.043024		-0.118899		-0.625219		-1.199921		0.413324		1.262884		1.873874		0.037162		-0.004806		0.029484		-1.989181		-1.690599		-2.242170		-0.353362		1.256027		1.901137		0.033774		-0.032280		0.037139		
0.974955		7.027474		-40.827410		-31.854440		0.169356		0.000000		0.144139		0.014280		-0.082982		-0.064743		-10.253140		-42.355450		-34.271422		-0.270119		0.000000		0.152794		-0.714706		-2.952362		-2.388907		-0.130226		-0.623977		-1.241275		0.413309		1.262889		1.873949		0.038195		-0.006319		0.026704		-1.924933		-1.747463		-2.337342		-0.353385		1.256048		1.901223		0.034117		-0.030546		0.038090		
0.977682		8.592568		-44.403156		-35.101754		0.171869		0.000000		0.135999		-0.001163		0.005892		0.004673		-10.420375		-33.551428		-32.593740		-0.293276		0.000000		0.130628		-0.754975		-2.430713		-2.361441		-0.125919		-0.618829		-1.290770		0.413295		1.262891		1.874023		0.039266		-0.007913		0.023872		-1.855230		-1.805707		-2.444213		-0.353412		1.256066		1.901310		0.034091		-0.028516		0.039316		
0.980409		9.166197		-40.282566		-33.006233		0.176367		0.000000		0.123012		-0.034274		0.150420		0.123295		-8.637717		-13.311289		-23.880466		-0.387813		0.000000		0.006749		-0.539565		-0.835473		-1.492556		-0.104992		-0.608682		-1.344558		0.413280		1.262891		1.874095		0.040225		-0.009665		0.021201		-1.780518		-1.864010		-2.555497		-0.353441		1.256080		1.901396		0.033626		-0.026234		0.040640		
0.983136		8.250458		-25.543168		-23.691066		0.191565		0.000000		0.087138		-0.118234		0.363601		0.338195		-4.384592		20.541517		-6.575236		-0.156145		0.000000		0.340701		0.226005		-0.982951		0.354115		-0.068442		-0.592147		-1.399105		0.413265		1.262890		1.874163		0.040934		-0.011584		0.018893		-1.701403		-1.920511		-2.662659		-0.353472		1.256088		1.901482		0.032707		-0.023763		0.041874		
0.985864		5.412552		2.307289		-5.735868		0.450000		0.000000		0.900000		-0.664985		-4.982131		-0.955450		2.659476		69.216559		20.139180		-0.186659		0.000000		0.223898		0.098803		2.537746		0.741482		-0.019475		-0.567929		-1.451542		0.413251		1.262889		1.874226		0.041291		-0.013601		0.017114		-1.619309		-1.972678		-2.757072		-0.353503		1.256092		1.901565		0.031383		-0.021170		0.042840		
0.988591		0.349570		45.077376		21.595499		0.152415		0.000000		0.220912		0.005687		0.709232		0.339557		12.545989		132.855591		56.158087		-0.205315		0.000000		0.204968		0.659997		6.987023		2.953849		0.037171		-0.535056		-1.499831		0.413234		1.262888		1.874283		0.041246		-0.015581		0.015985		-1.536796		-2.017473		-2.831369		-0.353533		1.256092		1.901646		0.029755		-0.018517		0.043386		
0.991318		-7.033502		103.589732		58.092506		0.157242		0.000000		0.188760		-0.080903		1.192830		0.668854		24.978746		210.428567		100.256373		-0.212904		0.000000		0.197832		1.461636		12.312321		5.866308		0.095888		-0.493243		-1.542652		0.413216		1.262889		1.874333		0.040805		-0.017347		0.015572		-1.457657		-2.051799		-2.880539		-0.353560		1.256087		1.901719		0.027957		-0.015848		0.043403		
0.994045		-16.527604		177.282014		102.317946		0.159173		0.000000		0.178438		-0.159103		1.706705		0.985020		39.242940		299.678813		149.948952		-0.215722		0.000000		0.194945		2.415169		18.443329		9.228431		0.151156		-0.443444		-1.579213		0.413196		1.262891		1.874376		0.040028		-0.018717		0.015870		-1.386444		-2.073229		-2.903040		-0.353585		1.256081		1.901787		0.026144		-0.013204		0.042845		
0.996773		-27.626961		264.537777		151.762280		0.159894		0.000000		0.174179		-0.243464		2.331330		1.337466		54.252715		397.734992		201.748195		-0.215618		0.000000		0.194525		3.429609		25.142909		12.753559		0.198449		-0.388015		-1.608854		0.413172		1.262895		1.874411		0.039014		-0.019537		0.016827		-1.327942		-2.080164		-2.900516		-0.353607		1.256073		1.901847		0.024459		-0.010636		0.041719		
0.999500		-39.475653		362.397380		202.836468		0.159940		0.000000		0.172751		-0.340178		3.122932		1.747928		68.591874		501.307715		251.421881		-0.213259		0.000000		0.195975		4.384860		32.047004		16.072599		0.235263		-0.330929		-1.631177		0.413146		1.262899		1.874440		0.037887		-0.019728		0.018329		-1.285947		-2.072573		-2.878440		-0.353626		1.256065		1.901898		0.023022		-0.008212		0.040100		
1.002227		-50.965744		467.509964		251.378466		0.159490		0.000000		0.173209		-0.453808		4.162820		2.238283		80.620331		607.590768		294.448827		-0.208846		0.000000		0.199158		5.134267		38.693936		18.751827		0.260982		-0.277293		-1.645778		0.413119		1.262903		1.874460		0.036777		-0.019277		0.020240		-1.263319		-2.051357		-2.844352		-0.353642		1.256058		1.901939		0.021924		-0.006030		0.038094		
1.004955		-60.855319		576.194411		293.313278		0.158634		0.000000		0.175169		-0.586181		5.550180		2.825289		88.754236		714.473709		326.924493		-0.202565		0.000000		0.204011		5.532437		44.535941		20.378597		0.277201		-0.232528		-1.652823		0.413090		1.262908		1.874475		0.035799		-0.018265		0.022393		-1.260458		-2.019063		-2.807403		-0.353657		1.256052		1.901970		0.021214		-0.004186		0.035849		
1.007682		-67.887692		685.277501		325.123936		0.157427		0.000000		0.178498		-0.734155		7.411391		3.515986		91.515030		820.742884		345.694306		-0.194673		0.000000		0.210511		5.455470		48.923804		20.607470		0.286356		-0.201792		-1.652685		0.413061		1.262911		1.874482		0.035043		-0.016826		0.024625		-1.276128		-1.978980		-2.776372		-0.353670		1.256050		1.901992		0.020927		-0.002781		0.033514		
1.010409		-71.071523		792.207738		344.833142		0.155941		0.000000		0.183077		-0.884317		9.857981		4.290704		87.963577		925.709993		349.316752		-0.185687		0.000000		0.218518		4.866928		51.214190		19.326744		0.291128		-0.188565		-1.646217		0.413035		1.262911		1.874483		0.034564		-0.015139		0.026784		-1.306584		-1.935230		-2.758396		-0.353682		1.256050		1.902006		0.021072		-0.001885		0.031237		
1.013136		-69.746357		895.060072		352.045962		0.154261		0.000000		0.188785		-1.010063		12.964440		5.098615		77.724303		1028.578971		337.784648		-0.176338		0.000000		0.227783		3.843584		50.852179		16.702156		0.293265		-0.194343		-1.634289		0.413011		1.262910		1.874479		0.034383		-0.013396		0.028746		-1.346532		-1.892002		-2.758216		-0.353694		1.256051		1.902012		0.021656		-0.001542		0.029156		
1.015864		-63.790956		992.354398		348.260533		0.152494		0.000000		0.195423		-1.073587		16.704664		5.861725		61.283415		1127.796640		312.839893		-0.167472		0.000000		0.237913		2.588753		47.617868		13.211667		0.293214		-0.217835		-1.617709		0.412990		1.262905		1.874469		0.034486		-0.011795		0.030418		-1.389374		-1.853029		-2.777324		-0.353704		1.256056		1.902010		0.022671		-0.001752		0.027388		
1.018591		-53.617283		1082.656813		336.353552		0.150742		0.000000		0.202716		-1.036177		20.926969		6.500948		39.945918		1220.512158		277.536797		-0.159840		0.000000		0.248393		1.367742		41.757411		9.497807		0.290172		-0.255306		-1.597070		0.412973		1.262898		1.874454		0.034827		-0.010519		0.031745		-1.428227		-1.820967		-2.814054		-0.353715		1.256061		1.902003		0.024087		-0.002483		0.026027		
1.021318		-40.148329		1164.193558		319.980681		0.149075		0.000000		0.210300		-0.874378		25.363891		6.970599		15.764397		1302.413071		235.890639		-0.153929		0.000000		0.258637		0.413137		34.001494		6.161798		0.282574		-0.301088		-1.572865		0.412962		1.262888		1.874434		0.035332		-0.009721		0.032703		-1.456870		-1.797093		-2.863880		-0.353726		1.256069		1.901988		0.025839		-0.003672		0.025146		
1.024045		-24.765116		1234.741139		302.919854		0.147525		0.000000		0.217758		-0.595276		29.684302		7.282286		-8.638756		1368.285607		192.487003		-0.149881		0.000000		0.268043		-0.160103		25.428858		3.578236		0.268756		-0.348394		-1.545777		0.412955		1.262876		1.874411		0.035909		-0.009502		0.033288		-1.470875		-1.781305		-2.919945		-0.353734		1.256076		1.901968		0.027824		-0.005234		0.024785		
1.026773		-9.131922		1291.360251		288.487542		0.146090		0.000000		0.224652		-0.237061		33.555642		7.495927		-30.366875		1412.505058		152.004867		-0.147607		0.000000		0.276040		-0.369108		17.210648		1.854060		0.247296		-0.390380		-1.516838		0.412952		1.262863		1.874383		0.036448		-0.009898		0.033505		-1.467979		-1.772740		-2.974094		-0.353741		1.256085		1.901939		0.029912		-0.007077		0.024973		
